<svg width="42" height="42" viewBox="0 0 42 42" fill="none" xmlns="http://www.w3.org/2000/svg">
<path d="M27.0848 22.5566L29.7361 37.4771C29.7658 37.6528 29.7411 37.8334 29.6654 37.9947C29.5897 38.156 29.4666 38.2904 29.3124 38.3798C29.1583 38.4692 28.9806 38.5095 28.803 38.4951C28.6254 38.4808 28.4564 38.4126 28.3186 38.2996L22.0536 33.5974C21.7511 33.3714 21.3837 33.2494 21.0062 33.2494C20.6287 33.2494 20.2612 33.3714 19.9588 33.5974L13.6833 38.2979C13.5456 38.4107 13.3768 38.4787 13.1994 38.4931C13.022 38.5074 12.8445 38.4673 12.6905 38.3782C12.5364 38.289 12.4133 38.155 12.3374 37.994C12.2615 37.833 12.2366 37.6527 12.2658 37.4771L14.9153 22.5566" stroke="#599CED" stroke-width="4" stroke-linecap="round" stroke-linejoin="round"/>
<path d="M21 24.5C26.799 24.5 31.5 19.799 31.5 14C31.5 8.20101 26.799 3.5 21 3.5C15.201 3.5 10.5 8.20101 10.5 14C10.5 19.799 15.201 24.5 21 24.5Z" stroke="#599CED" stroke-width="4" stroke-linecap="round" stroke-linejoin="round"/>
</svg>
