<svg width="36" height="36" viewBox="0 0 36 36" fill="none" xmlns="http://www.w3.org/2000/svg">
<path d="M25.5 28.5C25.5 30.1569 26.8431 31.5 28.5 31.5C30.1569 31.5 31.5 30.1569 31.5 28.5C31.5 26.8431 30.1569 25.5 28.5 25.5C26.8431 25.5 25.5 26.8431 25.5 28.5ZM7.5 10.5V28.5H25.5M7.5 10.5C9.15685 10.5 10.5 9.15685 10.5 7.5C10.5 5.84315 9.15685 4.5 7.5 4.5C5.84315 4.5 4.5 5.84315 4.5 7.5C4.5 9.15685 5.84315 10.5 7.5 10.5ZM7.5 28.5L16.5 19.5" stroke="#6B7AEF" stroke-width="3" stroke-linecap="round" stroke-linejoin="round"/>
</svg>
