<svg width="34" height="34" viewBox="0 0 34 34" fill="none" xmlns="http://www.w3.org/2000/svg">
<path d="M16.7214 30.6518C24.416 30.6518 30.6538 24.4141 30.6538 16.7195C30.6538 9.02484 24.416 2.78711 16.7214 2.78711C9.02679 2.78711 2.78906 9.02484 2.78906 16.7195C2.78906 24.4141 9.02679 30.6518 16.7214 30.6518Z" stroke="#6BB6FF" stroke-width="2.78647" stroke-linecap="round" stroke-linejoin="round"/>
<path d="M16.7188 25.0782C21.3356 25.0782 25.0782 21.3356 25.0782 16.7188C25.0782 12.102 21.3356 8.35938 16.7188 8.35938C12.102 8.35938 8.35938 12.102 8.35938 16.7188C8.35938 21.3356 12.102 25.0782 16.7188 25.0782Z" stroke="#6BB6FF" stroke-width="2.78647" stroke-linecap="round" stroke-linejoin="round"/>
<path d="M16.7162 19.5065C18.2551 19.5065 19.5026 18.259 19.5026 16.7201C19.5026 15.1811 18.2551 13.9336 16.7162 13.9336C15.1772 13.9336 13.9297 15.1811 13.9297 16.7201C13.9297 18.259 15.1772 19.5065 16.7162 19.5065Z" stroke="#6BB6FF" stroke-width="2.78647" stroke-linecap="round" stroke-linejoin="round"/>
</svg>
