<svg width="48" height="48" viewBox="0 0 48 48" fill="none" xmlns="http://www.w3.org/2000/svg">
<path d="M19.9863 9.99307V5.99585" stroke="#F4A460" stroke-width="3.99722" stroke-linecap="round" stroke-linejoin="round"/>
<path d="M27.9805 9.99307V5.99585" stroke="#F4A460" stroke-width="3.99722" stroke-linecap="round" stroke-linejoin="round"/>
<path d="M29.979 41.9707V35.9748C29.979 34.3846 29.3473 32.8596 28.2228 31.7351C27.0984 30.6107 25.5733 29.979 23.9831 29.979C22.3929 29.979 20.8679 30.6107 19.7434 31.7351C18.619 32.8596 17.9873 34.3846 17.9873 35.9748V41.9707" stroke="#F4A460" stroke-width="3.99722" stroke-linecap="round" stroke-linejoin="round"/>
<path d="M35.9746 5.99585V21.9847" stroke="#F4A460" stroke-width="3.99722" stroke-linecap="round" stroke-linejoin="round"/>
<path d="M35.975 9.99268H11.9917" stroke="#F4A460" stroke-width="3.99722" stroke-linecap="round" stroke-linejoin="round"/>
<path d="M43.9693 21.9844H3.99707" stroke="#F4A460" stroke-width="3.99722" stroke-linecap="round" stroke-linejoin="round"/>
<path d="M43.9693 17.9873V37.9734C43.9693 39.0336 43.5482 40.0503 42.7986 40.7999C42.0489 41.5495 41.0322 41.9706 39.9721 41.9706H7.99429C6.93416 41.9706 5.91745 41.5495 5.16783 40.7999C4.41821 40.0503 3.99707 39.0336 3.99707 37.9734V17.9873" stroke="#F4A460" stroke-width="3.99722" stroke-linecap="round" stroke-linejoin="round"/>
<path d="M11.9917 5.99585V21.9847" stroke="#F4A460" stroke-width="3.99722" stroke-linecap="round" stroke-linejoin="round"/>
</svg>
