<svg width="48" height="48" viewBox="0 0 48 48" fill="none" xmlns="http://www.w3.org/2000/svg">
<path d="M35.5751 38.3731L31.9776 21.9845L38.9727 14.9893C41.9706 11.9914 42.9699 7.9942 41.9706 5.99559C39.972 4.99628 35.9748 5.99559 32.9769 8.99351L25.9817 15.9886L9.59311 12.3911C8.5938 12.1913 7.79436 12.591 7.39463 13.3905L6.79505 14.3898C6.39533 15.3891 6.59519 16.3884 7.39463 16.988L17.9873 23.9831L13.9901 29.9789H7.99422L5.99561 31.9775L11.9914 35.9748L15.9887 41.9706L17.9873 39.972V33.9762L23.9831 29.9789L30.9783 40.5716C31.5778 41.371 32.5771 41.5709 33.5764 41.1712L34.5758 40.7714C35.3752 40.1719 35.7749 39.3724 35.5751 38.3731Z" stroke="#9B8FD8" stroke-width="3.99722" stroke-linecap="round" stroke-linejoin="round"/>
</svg>
