<svg width="48" height="48" viewBox="0 0 48 48" fill="none" xmlns="http://www.w3.org/2000/svg">
<path d="M23.9829 35.9746V9.99268" stroke="#7EC97E" stroke-width="3.99722" stroke-linecap="round" stroke-linejoin="round"/>
<path d="M29.979 25.9818C28.2498 25.4763 26.7309 24.4241 25.65 22.9828C24.569 21.5416 23.9842 19.7889 23.9831 17.9873C23.9821 19.7889 23.3972 21.5416 22.3163 22.9828C21.2354 24.4241 19.7165 25.4763 17.9873 25.9818" stroke="#7EC97E" stroke-width="3.99722" stroke-linecap="round" stroke-linejoin="round"/>
<path d="M35.1711 12.9908C35.631 12.1944 35.9015 11.3028 35.9617 10.385C36.0219 9.4673 35.8701 8.54802 35.5182 7.69831C35.1663 6.84859 34.6236 6.09123 33.9321 5.48481C33.2407 4.8784 32.4189 4.43918 31.5306 4.20113C30.6422 3.96309 29.711 3.93261 28.8089 4.11204C27.9069 4.29148 27.0582 4.67602 26.3286 5.23592C25.5989 5.79582 25.0079 6.51607 24.6011 7.34095C24.1944 8.16582 23.9828 9.07322 23.9829 9.99293C23.9829 9.07322 23.7714 8.16582 23.3646 7.34095C22.9579 6.51607 22.3668 5.79582 21.6372 5.23592C20.9075 4.67602 20.0589 4.29148 19.1568 4.11204C18.2548 3.93261 17.3236 3.96309 16.4352 4.20113C15.5468 4.43918 14.7251 4.8784 14.0336 5.48481C13.3422 6.09123 12.7995 6.84859 12.4476 7.69831C12.0956 8.54802 11.9439 9.4673 12.0041 10.385C12.0643 11.3028 12.3348 12.1944 12.7947 12.9908" stroke="#7EC97E" stroke-width="3.99722" stroke-linecap="round" stroke-linejoin="round"/>
<path d="M35.9688 10.2429C37.1435 10.545 38.2342 11.1104 39.1581 11.8964C40.082 12.6824 40.8149 13.6683 41.3014 14.7795C41.7878 15.8906 42.015 17.0979 41.9658 18.3099C41.9166 19.5219 41.5922 20.7068 41.0172 21.7749" stroke="#7EC97E" stroke-width="3.99722" stroke-linecap="round" stroke-linejoin="round"/>
<path d="M35.9751 35.9748C37.7349 35.9747 39.4455 35.394 40.8416 34.3226C42.2377 33.2513 43.2413 31.7493 43.6968 30.0495C44.1523 28.3496 44.0341 26.547 43.3607 24.9212C42.6873 23.2953 41.4963 21.9371 39.9723 21.0571" stroke="#7EC97E" stroke-width="3.99722" stroke-linecap="round" stroke-linejoin="round"/>
<path d="M39.906 34.9414C40.046 36.0251 39.9625 37.1261 39.6604 38.1762C39.3583 39.2264 38.8441 40.2034 38.1496 41.0471C37.4551 41.8907 36.5951 42.583 35.6225 43.0813C34.65 43.5795 33.5856 43.8731 32.4952 43.9438C31.4047 44.0146 30.3114 43.861 29.2826 43.4927C28.2538 43.1243 27.3115 42.549 26.5138 41.8022C25.7161 41.0553 25.0799 40.1529 24.6446 39.1506C24.2094 38.1483 23.9842 37.0674 23.983 35.9747C23.9819 37.0674 23.7567 38.1483 23.3214 39.1506C22.8861 40.1529 22.25 41.0553 21.4523 41.8022C20.6546 42.549 19.7123 43.1243 18.6835 43.4927C17.6547 43.861 16.5613 44.0146 15.4709 43.9438C14.3805 43.8731 13.3161 43.5795 12.3436 43.0813C11.371 42.583 10.5109 41.8907 9.81644 41.0471C9.12195 40.2034 8.60778 39.2264 8.30569 38.1762C8.00361 37.1261 7.92002 36.0251 8.06009 34.9414" stroke="#7EC97E" stroke-width="3.99722" stroke-linecap="round" stroke-linejoin="round"/>
<path d="M11.9917 35.9748C10.2319 35.9747 8.52128 35.394 7.12517 34.3226C5.72906 33.2513 4.72544 31.7493 4.26997 30.0495C3.8145 28.3496 3.93262 26.547 4.60602 24.9212C5.27942 23.2953 6.47046 21.9371 7.99443 21.0571" stroke="#7EC97E" stroke-width="3.99722" stroke-linecap="round" stroke-linejoin="round"/>
<path d="M11.9978 10.2429C10.823 10.545 9.73236 11.1104 8.80846 11.8964C7.88456 12.6824 7.15163 13.6683 6.66517 14.7795C6.17872 15.8906 5.9515 17.0979 6.00073 18.3099C6.04995 19.5219 6.37433 20.7068 6.94929 21.7749" stroke="#7EC97E" stroke-width="3.99722" stroke-linecap="round" stroke-linejoin="round"/>
</svg>
