<svg width="48" height="48" viewBox="0 0 48 48" fill="none" xmlns="http://www.w3.org/2000/svg">
<g clip-path="url(#clip0_158_301)">
<path d="M29.2998 23.7168C29.7165 21.8835 30.7581 20.6001 32.4248 19.1335C34.5081 17.4835 35.5498 15.1001 35.5498 12.7168C35.5498 9.79942 34.2328 7.00152 31.8886 4.93862C29.5444 2.87572 26.365 1.7168 23.0498 1.7168C19.7346 1.7168 16.5552 2.87572 14.211 4.93862C11.8668 7.00152 10.5498 9.79942 10.5498 12.7168C10.5498 14.5501 10.9665 16.7501 13.6748 19.1335C15.1331 20.4168 16.3831 21.8835 16.7998 23.7168" stroke="#4ECDC4" stroke-width="4.97839" stroke-linecap="round" stroke-linejoin="round"/>
<path d="M16.7998 31.05H29.2998" stroke="#4ECDC4" stroke-width="4.97839" stroke-linecap="round" stroke-linejoin="round"/>
<path d="M18.8828 38.3833H27.2161" stroke="#4ECDC4" stroke-width="4.97839" stroke-linecap="round" stroke-linejoin="round"/>
</g>
<defs>
<clipPath id="clip0_158_301">
<rect width="47.9667" height="47.9667" fill="white"/>
</clipPath>
</defs>
</svg>
