<svg width="54" height="54" viewBox="0 0 54 54" fill="none" xmlns="http://www.w3.org/2000/svg">
<path d="M26.551 48.6774C38.771 48.6774 48.6772 38.7712 48.6772 26.5512C48.6772 14.3313 38.771 4.42505 26.551 4.42505C14.331 4.42505 4.4248 14.3313 4.4248 26.5512C4.4248 38.7712 14.331 48.6774 26.551 48.6774Z" stroke="#9B8FD8" stroke-width="4.42524" stroke-linecap="round" stroke-linejoin="round"/>
<path d="M20.1123 19.9133C20.6325 18.4345 21.6593 17.1876 23.0107 16.3933C24.3622 15.599 25.9512 15.3087 27.4962 15.5737C29.0412 15.8387 30.4426 16.642 31.4521 17.8412C32.4617 19.0405 33.0142 20.5583 33.0119 22.1259C33.0119 26.5511 26.374 28.7638 26.374 28.7638" stroke="#9B8FD8" stroke-width="4.42524" stroke-linecap="round" stroke-linejoin="round"/>
<path d="M26.5508 37.6143H26.5729" stroke="#9B8FD8" stroke-width="4.42524" stroke-linecap="round" stroke-linejoin="round"/>
</svg>
