<svg width="54" height="54" viewBox="0 0 54 54" fill="none" xmlns="http://www.w3.org/2000/svg">
<path d="M13.2758 48.6773C12.1022 48.6773 10.9766 48.2111 10.1467 47.3812C9.31681 46.5513 8.85059 45.4257 8.85059 44.2521V8.85017C8.85059 7.67653 9.31681 6.55095 10.1467 5.72106C10.9766 4.89116 12.1022 4.42493 13.2758 4.42493H30.9768C31.6772 4.4238 32.3709 4.56124 33.018 4.82933C33.6651 5.09743 34.2527 5.49088 34.7471 5.98704L42.686 13.9259C43.1834 14.4205 43.578 15.0087 43.8469 15.6565C44.1158 16.3044 44.2536 16.9992 44.2525 17.7006V44.2521C44.2525 45.4257 43.7863 46.5513 42.9564 47.3812C42.1265 48.2111 41.0009 48.6773 39.8273 48.6773H13.2758Z" stroke="#F4A460" stroke-width="4.42524" stroke-linecap="round" stroke-linejoin="round"/>
<path d="M30.9766 4.42493V15.488C30.9766 16.0748 31.2097 16.6376 31.6246 17.0526C32.0396 17.4675 32.6024 17.7006 33.1892 17.7006H44.2523" stroke="#F4A460" stroke-width="4.42524" stroke-linecap="round" stroke-linejoin="round"/>
<path d="M32.0826 27.6575L21.0195 38.7206" stroke="#F4A460" stroke-width="4.42524" stroke-linecap="round" stroke-linejoin="round"/>
<path d="M21.0195 27.6575L32.0826 38.7206" stroke="#F4A460" stroke-width="4.42524" stroke-linecap="round" stroke-linejoin="round"/>
</svg>
